<?xml version="1.0" encoding="UTF-8"?><svg id="Layer_1" xmlns="http://www.w3.org/2000/svg" viewBox="0 0 1262.04 213.28"><path d="m621.7,124.13l-9.68-2.21c-6.42-1.43-10.9-3.2-13.3-5.24-2.33-1.98-3.46-4.61-3.46-8.05,0-3.91,1.53-6.91,4.67-9.19,3.2-2.32,7.69-3.5,13.35-3.5,4.68,0,8.77.91,12.16,2.71,3.4,1.8,6.37,4.45,8.84,7.86l.61.84,9.21-7.13-.57-.79c-3.36-4.59-7.58-8.18-12.53-10.67-4.96-2.49-10.91-3.75-17.71-3.75-9.16,0-16.54,2.23-21.95,6.62-5.47,4.44-8.24,10.3-8.24,17.42,0,6.32,2.02,11.46,6.01,15.27,3.91,3.74,10.2,6.65,18.71,8.66l9.52,2.22c7.02,1.6,11.89,3.51,14.46,5.69,2.49,2.12,3.71,4.92,3.71,8.58,0,4.55-1.85,8.02-5.67,10.61-3.89,2.63-9.37,3.97-16.29,3.97-5.91,0-11.01-1.24-15.15-3.67-4.16-2.45-7.83-6.16-10.89-11.03l-.58-.92-9.46,7.19.48.77c7.59,12.34,19.46,18.6,35.29,18.6,10.61,0,19.1-2.33,25.24-6.92,6.22-4.66,9.38-11.16,9.38-19.33,0-6.37-2.05-11.61-6.08-15.55-3.97-3.88-10.71-6.92-20.03-9.03Z"/><path d="m717.98,90.85c-6.12-3.87-13.6-5.83-22.24-5.83s-16.01,1.93-22.27,5.73c-6.26,3.81-11.13,9.19-14.49,16-3.34,6.77-5.04,14.73-5.04,23.66,0,13.42,3.77,24.31,11.2,32.38,7.45,8.09,18.08,12.2,31.58,12.2,7.4,0,14.04-1.36,19.73-4.05,5.7-2.7,10.5-6.6,14.28-11.6l.57-.75-8.88-7.6-.64.88c-2.72,3.76-6.19,6.69-10.32,8.7-4.14,2.02-9.1,3.04-14.74,3.04-9.3,0-16.59-2.74-21.67-8.13-4.92-5.22-7.63-12.44-8.05-21.45h68.36l.06-.94c.61-9.85-.62-18.45-3.63-25.58-3.03-7.18-7.68-12.78-13.81-16.65Zm-50.66,32.36c.98-8.18,3.9-14.73,8.69-19.46,4.98-4.92,11.62-7.42,19.74-7.42s14.33,2.43,19.12,7.21c4.61,4.61,7.21,11.23,7.73,19.67h-55.28Z"/><path d="m359.69,63.23c0-6.84-5.56-12.4-12.4-12.4-4.99,0-9.48,2.97-11.4,7.52l-37.42,89.22-37.4-89.16c-1.95-4.6-6.43-7.57-11.42-7.57-6.84,0-12.4,5.56-12.4,12.4v110.26s13.28,0,13.28,0v-105.88l41.63,99.28c.93,2.67,3.46,4.47,6.29,4.47,2.29,0,4.4-1.18,5.62-3.08l.1.04,42.23-100.71v105.88h13.29V63.48s0-.25,0-.25Z"/><path d="m784.38,159.41c-3.2,2.69-7.37,4.05-12.38,4.05s-8.44-1.33-10.91-3.96c-2.48-2.64-3.73-6.57-3.73-11.69v-49.74h26.81s0-11.49,0-11.49h-26.81s0-24.5,0-24.5h-13.08v86.41c0,8.33,2.33,14.88,6.91,19.46,4.58,4.59,11.19,6.91,19.63,6.91,3.64,0,7.16-.55,10.47-1.63,3.19-1.04,5.95-2.56,8.2-4.52l.58-.5-4.71-9.61-.98.82Z"/><path d="m382.76,53.8c-2.74,0-5.08.95-6.95,2.82-1.87,1.88-2.82,4.1-2.82,6.62s.95,4.91,2.82,6.78c1.88,1.88,4.21,2.83,6.95,2.83s5.08-.95,6.95-2.83c1.87-1.87,2.83-4.21,2.83-6.95,0-2.52-.95-4.72-2.84-6.54-1.88-1.81-4.21-2.73-6.94-2.73Z"/><rect x="375.99" y="86.57" width="13.38" height="86.89"/><path d="m445.74,85.08c-7.32,0-13.41,1.55-18.1,4.61-4.13,2.7-7.4,6.22-9.73,10.48v-13.54h-12.57v86.87l13.51-.03v-52.17c0-8.12,2.12-14.46,6.31-18.86,4.18-4.39,10.05-6.62,17.44-6.62s13.33,2.12,17.49,6.3c4.16,4.18,6.26,10.58,6.26,19.02v52.34h12.47v-52.83c0-11.48-2.94-20.37-8.74-26.42-5.81-6.06-13.99-9.13-24.33-9.13Z"/><path d="m557.69,62.06v39.67c-6.49-11.2-16.82-16.87-30.75-16.87-7.54,0-14.29,1.79-20.08,5.31-5.79,3.53-10.38,8.72-13.65,15.42-3.25,6.67-4.9,14.83-4.9,24.25s1.66,17.6,4.94,24.29c3.29,6.73,7.93,11.95,13.77,15.5,5.84,3.55,12.59,5.35,20.08,5.35s13.97-1.68,19.45-4.98c4.48-2.7,8.23-6.7,11.21-11.93v15.38h13.17V62.06h-13.25Zm.08,68.25c-.06,10.11-2.69,18.22-7.81,24.1-5.15,5.92-11.95,8.92-20.21,8.92s-15.05-2.92-20.17-8.68c-5.15-5.79-7.77-14.13-7.77-24.8s2.59-18.9,7.69-24.64c5.07-5.7,11.83-8.59,20.09-8.59s15.36,2.95,20.46,8.75c5.06,5.77,7.66,13.91,7.73,24.17v.76Z"/><path d="m892.61,58.57c-9.26-4.94-20.39-7.44-33.08-7.44h-36.17v122.3h36.34c12.63,0,23.72-2.47,32.96-7.36,9.26-4.9,16.49-11.99,21.5-21.08,5-9.07,7.53-20.03,7.53-32.55s-2.53-23.51-7.53-32.63c-5.01-9.15-12.25-16.29-21.54-21.24Zm2.68,89.35c-8.48,8.4-20.49,12.67-35.68,12.67h-22.82V63.98h22.91c15.14,0,27.11,4.3,35.6,12.79,8.48,8.49,12.79,20.49,12.79,35.68s-4.3,27.07-12.78,35.47Z"/><path d="m1253.71,158.8l-.98.81c-3.21,2.66-7.36,4.01-12.35,4.01s-8.48-1.34-10.96-3.99c-2.49-2.65-3.75-6.6-3.75-11.74V62.09h-12.93v86.47c0,8.31,2.32,14.84,6.89,19.41,4.57,4.57,11.16,6.89,19.58,6.89,3.63,0,7.15-.55,10.44-1.63,3.16-1.03,5.89-2.53,8.13-4.46l.58-.5-4.64-9.47Z"/><path d="m1121.15,159.41c-3.2,2.69-7.36,4.05-12.38,4.05s-8.44-1.33-10.91-3.96c-2.48-2.64-3.73-6.57-3.73-11.69v-49.73h26.81s0-11.49,0-11.49h-26.81s0-24.49,0-24.49h-13.08v86.38c0,8.33,2.33,14.88,6.91,19.46,4.58,4.59,11.19,6.91,19.63,6.91,3.64,0,7.16-.55,10.47-1.63,3.19-1.04,5.95-2.56,8.2-4.52l.58-.5-4.71-9.61-.98.82Z"/><path d="m939.09,53.8c-2.74,0-5.08.95-6.95,2.82-1.88,1.88-2.83,4.1-2.83,6.62s.95,4.91,2.83,6.78c1.88,1.88,4.21,2.83,6.95,2.83s5.08-.95,6.95-2.83c1.88-1.87,2.83-4.21,2.83-6.95,0-2.52-.96-4.72-2.84-6.54-1.87-1.81-4.21-2.73-6.94-2.73Z"/><rect x="932.31" y="86.57" width="13.38" height="86.89"/><path d="m1059.81,53.8c-2.74,0-5.08.95-6.95,2.82s-2.83,4.1-2.83,6.62.95,4.91,2.83,6.78c1.88,1.88,4.21,2.83,6.95,2.83s5.08-.95,6.95-2.83c1.88-1.87,2.83-4.21,2.83-6.95,0-2.52-.95-4.72-2.84-6.54-1.88-1.81-4.21-2.73-6.94-2.73Z"/><rect x="1053.03" y="86.59" width="13.38" height="86.88"/><path d="m1166.13,84.87c-7.38,0-13.89,1.46-19.35,4.35-5.45,2.88-10.19,7.09-14.08,12.5l-.56.78,9.57,7.47.6-.88c2.89-4.22,6.25-7.41,9.99-9.48,3.73-2.07,8.3-3.11,13.59-3.11,6.83,0,12.22,1.94,16.02,5.76,3.8,3.83,5.73,9.54,5.73,16.98v3.07h-27.72c-10.49,0-18.61,2.4-24.14,7.13-5.57,4.77-8.4,11.2-8.4,19.1s2.74,14.5,8.14,19.3c5.37,4.77,12.96,7.18,22.58,7.18,13.48,0,23.3-4.62,29.25-13.75v12.2h12.65s.6,0,.6,0v-53.08c0-11.46-3.06-20.34-9.09-26.4-6.03-6.06-14.57-9.13-25.36-9.13Zm21.19,52.55c0,8.36-2.28,14.72-6.96,19.42-4.82,4.84-11.45,7.3-19.71,7.3-6.81,0-12.01-1.48-15.46-4.41-3.45-2.93-5.12-6.7-5.12-11.52s1.63-8.26,4.99-11.01c3.37-2.77,8.73-4.17,15.92-4.17h26.33v4.4Z"/><path d="m1026.02,103.11c-2.84-5.56-6.61-9.9-11.25-12.92-5.27-3.43-12.08-5.17-20.23-5.17-7.43,0-14.11,1.73-19.87,5.14-5.76,3.42-10.35,8.43-13.62,14.88-3.26,6.43-4.91,14.27-4.91,23.33s1.65,16.79,4.91,23.16c3.27,6.4,7.84,11.36,13.58,14.72,5.73,3.36,12.37,5.06,19.74,5.06,7.88,0,14.47-1.64,19.6-4.87,4.44-2.8,8.06-6.66,10.79-11.5v11.83c0,6.4-.9,11.81-2.66,16.09-1.74,4.2-4.61,7.41-8.53,9.53-3.97,2.15-9.33,3.24-15.92,3.24-4.73,0-9.44-.99-14.01-2.93-4.44-1.89-7.94-5.06-10.4-9.41l-.47-.83-11.82,6,.57.92c2.58,4.2,5.83,7.66,9.65,10.27,3.87,2.65,8.13,4.61,12.65,5.83,4.5,1.21,9.13,1.82,13.75,1.82,7.52,0,14.08-.98,19.49-2.92,5.46-1.96,9.91-4.99,13.25-9.01,3.33-4.02,5.57-9.19,6.64-15.37.39-2.11.67-4.28.81-6.45.14-2.16.21-4.42.21-6.7v-80.28h-11.96v16.53Zm-8.69,48.39c-4.99,5.62-11.74,8.47-20.06,8.47-.08,0-.16,0-.24,0-8.11,0-14.77-2.72-19.79-8.08-5.09-5.44-7.7-13.35-7.75-23.51,0-10.11,2.55-18,7.59-23.43,5.02-5.42,11.76-8.19,20.03-8.24,8.32,0,15.1,2.84,20.14,8.44,5.07,5.63,7.64,13.42,7.64,23.16s-2.54,17.54-7.57,23.2Z"/><path d="m165.63,73.42c20.88-25.74,43.41-58.83,32.12-70.28-6.77-6.85-22.07-2.49-45.49,12.95-19.19,12.65-39.05,29.65-49.25,38.72-.95-.34-1.9-.51-2.89-.52-.04,0-.08,0-.12,0-2.39,0-4.67.96-6.44,2.71-1.74,1.74-2.7,4.04-2.72,6.48-.02,2.46.93,4.78,2.67,6.55,1.78,1.76,4.1,2.73,6.52,2.74h.06c2.39,0,4.7-.94,6.49-2.66,1.74-1.76,2.71-4.07,2.73-6.52,0-.7-.08-1.41-.28-2.17C158.6,17.15,187.54,5.58,191.37,9.45c2.59,2.62-1.86,20.14-32.1,57.57-4.16-7.41-9.55-13.8-16.02-19.03l-.15-.1-7.15,5.74.23.2s.19.16.28.23c14.2,10.84,22.62,28.22,22.52,46.48v28.67h-9.56c-2.47,0-4.48,2.01-4.48,4.49v29.52h-37.08c-2.47,0-4.48,2.01-4.48,4.48v29.71h8.96v-25.22h37.07c2.47,0,4.48-2.01,4.48-4.49v-29.51h9.56c2.47,0,4.48-2.01,4.48-4.49v-33.14c.04-8.44-1.48-16.74-4.53-24.67l2.04-2.27c.07-.05.13-.13.18-.2Z"/><path d="m133.72,111.29s.02-.02.03-.03v14.23h8.25v-23.48c0-2.9-2.36-5.26-5.26-5.26h-23.48v8.25h14.08c-9.45,9.61-27.28,25.05-30.76,28.05-.04.04-.08.07-.12.11h0c-29.16,26.58-49.7,40.55-61.8,47.6-14.83,8.63-23.37,10.56-25.26,8.66-2.15-2.16.83-16.4,23.56-46.65v25.39l8.97-5.18v-63.11c.11-19.39,10.29-37.63,27.24-48.79,9.39-6.17,19.47-9.36,29.97-9.49.33,0,.67,0,1,0h.5s.06-.05.06-.05h0l3.78-3.19.06-.05h0s5.9-4.98,5.9-4.98l-.55-.08c-6.78-.98-13.52-.89-20.06.17l-.25.04v.03c-8.84,1.46-17.33,4.84-25.34,10.12-19.46,12.82-31.15,33.85-31.27,56.26v28.27C13.21,152.82-7.98,184.58,3.01,195.72c2.05,2.06,4.93,3.11,8.57,3.11,5.44,0,12.75-2.38,21.74-7.06l8.47-4.78c24.75-15.03,52.79-40.01,60.8-47.31.03-.03.25-.22.63-.55,13.61-11.8,24.44-21.69,30.5-27.84Z"/></svg>